<svg width="33" height="59" viewBox="0 0 33 59" fill="none" xmlns="http://www.w3.org/2000/svg">
<path d="M11.2897 58.6354C13.1657 58.6354 14.6865 57.1924 14.6865 55.4125C14.6865 53.6325 13.1657 52.1895 11.2897 52.1895C9.41364 52.1895 7.89282 53.6325 7.89282 55.4125C7.89282 57.1924 9.41364 58.6354 11.2897 58.6354Z" fill="#EE24FF"/>
<path d="M17.7157 0.0951385C13.5248 -0.353393 9.3178 0.796033 6.02011 3.29055C2.72243 5.78507 0.604214 9.42035 0.131477 13.3967C-0.852949 21.6769 3.74476 39.6577 12.1273 47.101C16.0742 32.8403 29.905 24.3816 31.7351 16.779C33.6906 8.65546 26.4428 1.02916 17.7157 0.0951385Z" fill="#EE24FF"/>
<path d="M16.079 18.0308C18.9432 18.0308 21.2652 15.8278 21.2652 13.1102C21.2652 10.3926 18.9432 8.18954 16.079 8.18954C13.2147 8.18954 10.8928 10.3926 10.8928 13.1102C10.8928 15.8278 13.2147 18.0308 16.079 18.0308Z" fill="white"/>
</svg>
