<svg width="350" height="238" viewBox="0 0 350 238" fill="none" xmlns="http://www.w3.org/2000/svg">
<g clip-path="url(#clip0_59_12)">
<path d="M283.25 151.438C283.563 151.466 283.877 151.401 284.15 151.254C284.423 151.106 284.642 150.883 284.777 150.613C284.911 150.344 284.955 150.042 284.903 149.748C284.85 149.454 284.704 149.182 284.483 148.97C284.452 148.822 284.429 148.717 284.398 148.569C284.413 148.538 284.429 148.507 284.444 148.476C284.795 147.782 285.354 147.202 286.051 146.809C286.748 146.415 287.552 146.226 288.362 146.264C289.172 146.303 289.952 146.568 290.604 147.026C291.256 147.484 291.751 148.114 292.026 148.838C293.127 151.727 294.567 154.636 294.809 157.65C294.915 158.982 294.777 160.321 294.401 161.609C297.609 155.708 299.444 149.222 299.779 142.59C299.861 140.926 299.845 139.259 299.731 137.596C299.637 136.233 299.479 134.877 299.259 133.527C298.053 126.206 295.034 119.26 290.45 113.261C288.154 111.937 286.341 109.977 285.255 107.645C284.861 106.807 284.597 105.919 284.471 105.009C284.735 105.054 285.005 105.087 285.27 105.115C285.352 105.123 285.439 105.131 285.522 105.138L285.553 105.141C285.844 105.166 286.137 105.111 286.397 104.982C286.656 104.853 286.87 104.656 287.014 104.414C287.158 104.172 287.225 103.896 287.207 103.619C287.189 103.342 287.087 103.075 286.913 102.852C286.805 102.713 286.697 102.574 286.589 102.435C286.425 102.22 286.256 102.01 286.092 101.795C286.073 101.775 286.055 101.753 286.038 101.731C285.849 101.486 285.66 101.246 285.471 101.001C285.864 100.479 286.378 100.049 286.974 99.7463C289.037 98.7189 291.77 99.6143 293.137 101.402C294.507 103.19 294.663 105.621 294.052 107.752C293.465 109.563 292.558 111.266 291.369 112.788C291.471 112.925 291.578 113.058 291.68 113.195C293.552 115.712 295.16 118.397 296.48 121.212C296.277 118.115 296.852 115.017 298.158 112.172C299.47 109.525 301.792 107.349 303.853 105.101C306.328 102.402 311.063 103.837 311.301 107.408C311.303 107.443 311.305 107.477 311.307 107.512C311.01 107.654 310.719 107.806 310.434 107.967C310.075 108.172 309.79 108.475 309.616 108.837C309.442 109.198 309.387 109.601 309.459 109.993C309.53 110.384 309.725 110.746 310.017 111.031C310.309 111.316 310.685 111.511 311.095 111.589L311.137 111.598C310.986 112.582 310.756 113.553 310.449 114.504C309.565 117.158 308.113 119.61 306.183 121.706C304.254 123.803 301.889 125.498 299.236 126.686C299.062 126.762 298.893 126.837 298.719 126.908C299.988 130.903 300.704 135.037 300.849 139.207C300.926 141.667 300.794 144.129 300.453 146.568L300.47 146.482C301.161 143.783 302.813 141.393 305.147 139.716C308.61 137.263 313.371 136.514 317.073 134.583C317.466 134.367 317.917 134.262 318.372 134.281C318.827 134.3 319.266 134.442 319.638 134.69C320.011 134.938 320.3 135.282 320.473 135.682C320.647 136.081 320.696 136.519 320.615 136.944C320.609 136.974 320.602 137.004 320.596 137.034C320.049 137.218 319.515 137.434 318.996 137.68C318.7 137.822 318.409 137.974 318.123 138.136C317.765 138.341 317.48 138.644 317.306 139.005C317.132 139.367 317.077 139.77 317.148 140.161C317.22 140.553 317.414 140.915 317.706 141.2C317.998 141.485 318.374 141.679 318.784 141.758L318.827 141.766C318.857 141.772 318.883 141.777 318.913 141.782C317.894 143.819 316.514 145.673 314.832 147.265C312.757 149.191 310.288 150.694 307.579 151.682C304.869 152.67 301.976 153.122 299.075 153.012L299.071 153.011C298.125 156.222 296.829 159.33 295.206 162.287L283.05 161.75C283.012 161.62 282.98 161.486 282.947 161.356C284.069 161.472 285.201 161.458 286.32 161.314C285.469 160.224 284.619 159.126 283.769 158.036C283.75 158.016 283.732 157.994 283.715 157.972C283.284 157.414 282.848 156.86 282.417 156.303L282.417 156.302C282.474 154.654 282.753 153.019 283.25 151.439L283.25 151.438Z" fill="#F2F2F2"/>
<path d="M38.3184 51.7041C38.0079 51.7499 37.6901 51.704 37.408 51.5727C37.1259 51.4414 36.8932 51.231 36.7413 50.97C36.5894 50.709 36.5258 50.41 36.559 50.1135C36.5923 49.817 36.7207 49.5374 36.9271 49.3126C36.9489 49.1637 36.9645 49.0568 36.9863 48.908C36.969 48.8779 36.9515 48.8478 36.934 48.8178C36.5389 48.1457 35.9432 47.5994 35.2219 47.2474C34.5006 46.8955 33.6857 46.7537 32.8797 46.8397C32.0737 46.9258 31.3124 47.2359 30.6916 47.7311C30.0707 48.2264 29.618 48.8846 29.3901 49.6232C28.4791 52.5713 27.2315 55.5589 27.1865 58.5812C27.1672 59.917 27.3923 61.246 27.8517 62.5088C24.2647 56.8077 22.0117 50.4415 21.2453 43.8418C21.0548 42.1855 20.962 40.5204 20.9675 38.8543C20.9732 37.4883 21.0422 36.1254 21.1744 34.7658C21.9009 27.3877 24.4615 20.2783 28.6462 14.0215C30.8518 12.5656 32.534 10.5033 33.4663 8.11238C33.8047 7.25258 34.0102 6.35082 34.0763 5.43516C33.8156 5.49537 33.5491 5.54368 33.2865 5.58742C33.2046 5.60002 33.1183 5.6131 33.0364 5.62573L33.0055 5.63026C32.7162 5.67264 32.4202 5.63478 32.153 5.52124C31.8859 5.4077 31.6591 5.22332 31.4998 4.9903C31.3406 4.75728 31.2557 4.48555 31.2554 4.20783C31.2552 3.9301 31.3395 3.65823 31.4983 3.42493C31.5972 3.27979 31.6962 3.13471 31.7953 2.9897C31.9452 2.76608 32.0998 2.54613 32.2497 2.32255C32.2675 2.30094 32.2839 2.27838 32.299 2.25498C32.4716 1.99988 32.6446 1.74892 32.8172 1.49382C32.3916 0.995223 31.8504 0.59663 31.2358 0.329117C29.1095 -0.575403 26.4399 0.478537 25.1926 2.34315C23.941 4.20819 23.9438 6.64321 24.6924 8.73475C25.3962 10.5076 26.4128 12.1539 27.6988 13.603C27.6054 13.7459 27.5073 13.8851 27.414 14.0279C25.7095 16.6501 24.28 19.4245 23.1459 22.3112C23.1465 19.2083 22.3706 16.1495 20.8821 13.3866C19.4005 10.8214 16.9413 8.78594 14.7379 6.66352C12.0912 4.11418 7.4592 5.824 7.45463 9.40241C7.45458 9.43706 7.45463 9.47168 7.45477 9.50629C7.76017 9.63061 8.06058 9.76502 8.35599 9.90952C8.72736 10.0933 9.03157 10.3791 9.22876 10.7297C9.42596 11.0803 9.50693 11.4792 9.46108 11.8742C9.41524 12.2692 9.24471 12.6419 8.97183 12.9433C8.69896 13.2448 8.33646 13.461 7.93185 13.5637L7.89042 13.5742C8.10572 14.5476 8.3987 15.504 8.76682 16.4352C9.82188 19.0321 11.431 21.3941 13.4933 23.3733C15.5555 25.3524 18.0265 26.906 20.7513 27.9367C20.9298 28.0015 21.1041 28.0668 21.2821 28.1275C20.2758 32.189 19.8304 36.3574 19.9571 40.5279C20.0402 42.9875 20.3327 45.4368 20.8318 47.8516L20.8089 47.7666C19.9431 45.1134 18.1388 42.8249 15.7006 41.2877C12.0837 39.0426 7.28361 38.5737 3.46318 36.8633C3.05592 36.6707 2.5991 36.5926 2.1466 36.6382C1.6941 36.6839 1.26479 36.8513 0.909304 37.1209C0.553823 37.3904 0.286996 37.7508 0.140295 38.1595C-0.00640629 38.5682 -0.0268642 39.0082 0.0813362 39.4275C0.0896069 39.4573 0.0979641 39.4871 0.106402 39.5169C0.66402 39.6681 1.21116 39.8521 1.74466 40.0679C2.05006 40.1923 2.35046 40.3267 2.64587 40.4712C3.01724 40.6549 3.32145 40.9408 3.51864 41.2914C3.71583 41.642 3.79681 42.0409 3.75096 42.4359C3.70511 42.8309 3.53458 43.2035 3.26171 43.505C2.98883 43.8065 2.62634 44.0227 2.22173 44.1254L2.18026 44.1359C2.15039 44.1431 2.12484 44.15 2.09501 44.1572C3.2443 46.1299 4.74291 47.9002 6.5252 49.3906C8.72221 51.1905 11.2836 52.5457 14.0522 53.3731C16.8208 54.2005 19.7384 54.4826 22.626 54.2021L22.6304 54.2017C23.7839 57.3505 25.2792 60.377 27.0923 63.2325L39.1901 61.984C39.2189 61.8519 39.2428 61.7162 39.2673 61.5847C38.1551 61.767 37.0236 61.8195 35.898 61.7409C36.6758 60.6033 37.4526 59.4574 38.2304 58.3198C38.2482 58.2982 38.2647 58.2757 38.2797 58.2523C38.6737 57.6705 39.0725 57.0923 39.4665 56.5105L39.4667 56.5098C39.303 54.8679 38.9172 53.2528 38.3188 51.7043L38.3184 51.7041Z" fill="#F2F2F2"/>
<path d="M205.461 47.4503C206.06 47.6066 206.615 47.8856 207.088 48.2676C207.561 48.6496 207.94 49.1254 208.198 49.6613C208.456 50.1973 208.587 50.7804 208.582 51.3696C208.577 51.9589 208.436 52.5399 208.168 53.0718L214.66 59.92L211.236 64.6782L202.211 54.885C201.3 54.3997 200.607 53.6138 200.265 52.6762C199.923 51.7387 199.955 50.7148 200.356 49.7983C200.756 48.8819 201.497 48.1367 202.438 47.704C203.379 47.2712 204.454 47.181 205.461 47.4503Z" fill="#A0616A"/>
<path d="M266.238 64.2661C265.653 63.3623 264.885 62.577 263.98 61.9553C263.074 61.3335 262.047 60.8875 260.96 60.6429C259.872 60.3984 258.744 60.3599 257.64 60.5299C256.537 60.6999 255.479 61.0749 254.529 61.6334L233.178 74.1798L210.147 55.6049L204.417 60.6669L229.859 91.9872L262.928 75.631C262.156 76.0127 267.171 65.7062 266.238 64.2661Z" fill="#CCCCCC"/>
<path d="M223.942 105.984C223.944 115.989 221.868 125.896 217.834 135.139C213.8 144.383 207.885 152.782 200.429 159.857C192.973 166.931 184.121 172.543 174.378 176.37C164.636 180.198 154.194 182.167 143.649 182.165C99.305 182.165 63.3561 148.057 63.3561 105.984C63.3484 97.7997 64.7312 89.6681 67.451 81.9017C72.791 66.734 83.0212 53.5428 96.6951 44.1934C110.369 34.844 126.794 29.8096 143.649 29.8019C158.185 29.7972 172.449 33.5377 184.92 40.6242C197.39 47.7108 207.598 57.8773 214.454 70.0385C216.154 73.039 217.637 76.1457 218.892 79.337C219.066 79.7813 219.236 80.2257 219.401 80.6744V80.6786C220.137 82.6508 220.785 84.6597 221.346 86.7054C223.075 93 223.947 99.4787 223.942 105.984Z" fill="#3F3D56"/>
<path d="M134.864 54.5848C131.256 52.7334 127.25 51.6883 123.151 51.5292C119.052 51.3701 114.969 52.1012 111.214 53.6667C107.907 55.0321 104.425 57.4816 103.322 61.9048C107.783 59.4065 113.559 63.3537 114.707 69.6858L114.439 69.7559C113.832 74.1417 115.186 78.9168 117.807 81.6363C118.151 78.8115 120.108 76.8889 122.034 75.688C123.959 74.487 126.089 73.6146 127.559 71.5503C129.301 69.1031 129.744 65.5264 130.436 62.2636C131.128 59.0008 132.441 55.494 134.864 54.5848Z" fill="white"/>
<path d="M109.89 91.9069C108.655 93.6675 107.004 94.7722 105.523 96.1477C104.047 97.5275 102.642 99.3896 102.347 101.781C102.16 103.313 102.45 104.87 102.41 106.42C102.37 107.969 101.825 109.712 100.715 110.097C98.9615 110.698 97.6233 107.609 95.8212 107.393C94.3892 107.224 93.1001 109.361 93.515 111.215C93.9298 113.069 95.8792 113.89 96.9988 112.679C98.0114 114.292 97.2976 117.216 95.7766 117.711C95.6159 118.727 95.4554 119.739 95.2992 120.754C91.4541 118.202 87.5688 115.608 84.2992 111.871C80.6627 107.75 78.4072 102.691 77.8222 97.3455C77.3985 93.0497 78.0274 88.1359 75.9487 84.8305C74.2848 82.1853 71.43 81.6012 68.8606 81.7663C68.3923 81.796 67.9194 81.8467 67.451 81.9018C68.9663 77.5838 70.8908 73.4049 73.2009 69.4164C73.7236 69.2035 74.2094 68.9167 74.6417 68.5657C77.0326 66.64 78.0943 62.7421 80.0347 60.046C80.1596 59.8725 80.289 59.7032 80.4228 59.5382C82.4078 57.0792 85.0664 55.8137 87.6358 54.6371C93.3232 52.0174 99.1756 49.3637 105.18 49.7277L103.471 49.8843C101.477 55.1831 99.482 60.482 97.485 65.7809C97.1817 66.5934 96.8754 67.4074 96.5661 68.2229C95.4331 71.2363 94.2644 74.4444 94.4384 77.8175C94.541 79.8152 95.2725 81.9483 96.6642 82.6339C97.9623 83.2688 99.3808 82.49 100.634 81.7197C101.165 81.3981 101.691 81.0764 102.222 80.7505C104.127 79.5866 106.237 78.3931 108.249 79.1719C110.091 79.8829 111.451 82.2572 111.71 84.8178C111.947 87.3069 111.307 89.8002 109.89 91.9069Z" fill="white"/>
<path d="M121.219 128.084C115.656 124.834 110.093 121.584 104.53 118.334L104.624 118.103C101.165 119.353 99.7294 125.187 100.301 129.957C100.873 134.728 102.811 138.992 103.79 143.64C105.11 150.001 104.612 156.582 102.347 162.698C109.662 154.911 116.135 146.447 121.671 137.434C122.444 136.298 123.033 135.058 123.419 133.756C123.772 132.371 123.718 130.706 123.01 129.596C122.555 128.958 121.939 128.438 121.219 128.084Z" fill="white"/>
<path d="M99.2635 68.9601C98.6728 70.2203 98.4455 71.9005 98.9816 73.2044C99.5291 74.536 100.686 75.1378 101.752 75.6389L104.826 77.0845C105.848 77.5654 106.951 78.0511 107.993 77.6554C109.25 77.1782 110.122 75.308 109.897 73.5717C109.657 71.7241 108.429 70.4532 107.294 69.371C105.705 67.8564 104.117 66.3419 102.528 64.8274L101.633 65.8678C100.664 66.764 99.8632 67.8096 99.2635 68.9601Z" fill="white"/>
<path d="M207.464 88.7115C208.847 89.0205 210.23 89.3294 211.612 89.6384C211.371 94.0697 209.056 98.1708 205.952 99.6563C204.658 100.274 203.217 100.503 202.147 101.658C201.179 102.708 200.688 104.341 200.238 105.903C199.448 108.629 198.658 111.354 197.869 114.08C197.021 117.017 195.933 120.28 193.729 121.338C191.838 122.248 189.675 121.135 188.22 119.269C186.766 117.402 185.878 114.893 185.018 112.446C185.071 115.113 183.764 117.728 181.913 118.655C180.057 119.582 177.8 118.744 176.56 116.674C175.668 115.189 175.298 113.229 174.423 111.723C173.549 110.216 171.716 109.353 170.761 110.766C170.132 111.706 170.212 113.145 169.9 114.338C169.414 116.192 167.942 117.356 166.483 117.457C165.029 117.559 163.611 116.763 162.393 115.684C159.881 113.449 158.03 109.903 157.312 105.962C156.995 104.206 156.906 102.293 157.455 100.647C158.004 99.0003 159.328 97.7306 160.644 98.0438C161.51 96.3085 159.801 94.0061 158.262 94.2093C156.719 94.4124 155.51 95.9826 154.243 97.1889C152.981 98.3951 151.214 99.2711 149.943 98.0734C149.952 99.1865 148.997 99.9229 148.172 99.8298C147.351 99.7409 146.62 99.1146 145.866 98.6701C142.953 96.9476 139.255 98.0903 137.185 101.349C138.479 96.1265 140.375 90.1335 144.349 88.9062C145.973 88.4025 147.744 88.8173 149.278 87.9454C151.995 86.4007 152.544 80.5643 150.197 78.1561C150.496 80.433 150.438 83.0909 149.171 84.6485C147.904 86.206 145.246 85.1902 145.406 82.8878C145.041 84.4749 143.221 84.7162 142.382 83.4972C141.539 82.2784 141.61 80.285 142.208 78.829C142.806 77.3731 143.823 76.3277 144.809 75.3247C146.928 73.1704 149.078 70.9908 151.531 69.6364C153.989 68.2821 156.826 67.825 159.288 69.1709C160.586 69.8819 161.728 71.067 163.053 71.6933C164.378 72.3239 166.06 72.2436 166.938 70.7707C167.924 69.1285 167.46 66.6907 167.826 64.638C168.482 61.011 172.305 59.3138 174.423 61.7093C172.84 61.3241 171.203 63.1017 171.006 65.256C170.806 67.4102 171.952 69.5857 173.487 70.2374C176.065 71.3209 178.59 68.5953 180.539 66.0728C182.573 63.4319 184.61 60.7923 186.65 58.1542C186.976 57.705 187.342 57.283 187.743 56.8929C188.382 56.3021 189.234 55.9637 190.126 55.9464C191.018 55.9291 191.883 56.2342 192.547 56.7998C194.608 58.3954 195.576 61.667 197.267 63.9186C199.72 67.1902 203.391 67.9858 206.808 68.6207C209.355 69.0905 211.904 69.5631 214.454 70.0385C216.154 73.039 217.637 76.1456 218.892 79.3369C214.574 81.0764 210.591 84.3311 207.464 88.7115Z" fill="white"/>
<path d="M215.698 139.635C213.787 143.317 211.564 146.845 209.052 150.186C207.446 149.534 205.72 150.698 204.216 151.79C202.646 152.933 200.759 154.046 199.149 153.005C197.503 151.938 196.972 148.954 197.494 146.588C198.016 144.227 199.319 142.348 200.581 140.562C201.919 138.666 203.351 136.698 205.211 135.961C207.076 135.225 209.471 136.266 210.015 138.78L211.336 138.737C210.595 137.773 210.983 135.775 211.978 135.424C213.124 135.013 214.119 136.507 214.797 137.828C215.101 138.424 215.408 139.025 215.698 139.635Z" fill="white"/>
<path d="M165.129 121.758C162.291 121.927 160.043 118.612 158.549 115.351C157.055 112.09 155.692 108.361 153.132 106.701C151.668 105.752 150 105.622 148.413 105.163C146.826 104.703 145.165 103.752 144.406 101.815L142.606 101.125C140.228 102.394 137.819 103.685 135.771 105.749C133.473 108.065 132.042 111.034 131.698 114.198C131.354 117.617 132.624 121.429 134.997 122.713C136.872 123.728 139.054 123.089 140.954 124.018C143.327 125.178 144.735 128.55 145.269 131.88C145.802 135.209 145.667 138.669 146.048 142.036C146.43 145.403 147.481 148.907 149.657 150.632C152.38 152.792 156.376 150.997 157.598 147.067C158.197 145.139 158.177 142.963 158.625 140.962C159.414 137.437 161.544 134.822 163.234 131.931C164.923 129.04 166.253 125.113 165.129 121.758Z" fill="white"/>
<path d="M137.085 87.1242C137.35 87.3553 137.597 87.6041 137.824 87.8685C138.059 88.2536 138.18 88.6923 138.172 89.1373C138.164 89.5824 138.028 90.0169 137.779 90.3941C138.12 90.3756 138.455 90.2901 138.76 90.1429C139.065 89.9957 139.335 89.79 139.552 89.5389C140.07 88.9792 140.526 88.3702 140.912 87.7216C141.201 87.2738 141.509 86.6683 141.313 86.1364C141.179 85.7733 140.862 85.6184 140.639 85.3454C140.287 84.9127 140.2 84.2253 140.017 83.6314C139.624 82.3485 138.68 81.4052 137.656 81.2704L137.798 81.2962C137.371 81.4352 137.072 82.0797 137.166 82.6597C137.253 83.1878 137.61 83.6263 137.575 84.1649C137.524 84.9395 136.708 85.303 136.657 86.0777C136.649 86.4663 136.803 86.8422 137.085 87.1242Z" fill="white"/>
<path d="M132.222 73.9615C132.227 73.9604 132.231 73.9602 132.235 73.9592C132.322 73.8837 132.403 73.8019 132.477 73.7145L132.222 73.9615Z" fill="#E6E6E6"/>
<path d="M133.074 77.5973C133.701 77.2144 134.052 76.1556 133.844 75.2694C133.638 74.3887 132.908 73.7966 132.235 73.9592C132.04 74.147 131.797 74.2846 131.531 74.3592C131.264 74.4337 130.982 74.4426 130.71 74.3851C130.294 74.2835 129.837 74.0217 129.477 74.3192C129.27 74.5413 129.126 74.809 129.056 75.0978C128.923 75.4869 128.789 75.8759 128.655 76.2649C128.592 76.4042 128.575 76.5587 128.608 76.7072C128.634 76.7667 128.675 76.819 128.728 76.859C128.781 76.899 128.844 76.9254 128.911 76.9356C129.712 77.1598 130.514 77.384 131.315 77.6082C131.899 77.7715 132.53 77.929 133.074 77.5973Z" fill="white"/>
<path d="M193.579 127.792C193.209 127.217 192.838 126.641 192.468 126.066C192.104 125.399 191.607 124.806 191.003 124.321C190.871 124.215 190.717 124.136 190.552 124.088C190.387 124.04 190.213 124.023 190.041 124.039C189.868 124.056 189.702 124.105 189.55 124.183C189.398 124.262 189.264 124.368 189.156 124.496L189.201 124.825C190.045 125.83 190.939 126.947 191.153 128.439C191.238 129.027 191.208 129.636 191.282 130.226C191.356 130.817 191.567 131.43 191.969 131.684C192.552 132.054 193.237 131.509 193.652 130.844C194.023 130.297 194.19 129.648 194.125 129.001C194.032 128.567 193.847 128.155 193.579 127.792Z" fill="white"/>
<path d="M210.068 105.813C210.175 105.146 210.282 104.48 210.389 103.813C210.563 103.081 210.585 102.323 210.453 101.583C210.423 101.421 210.36 101.267 210.266 101.129C210.172 100.991 210.05 100.872 209.908 100.78C209.765 100.687 209.604 100.622 209.434 100.59C209.265 100.557 209.09 100.556 208.921 100.589L208.732 100.868C208.696 102.153 208.621 103.553 207.773 104.825C207.438 105.327 207.002 105.774 206.658 106.272C206.314 106.769 206.059 107.366 206.194 107.807C206.389 108.446 207.283 108.447 208.052 108.192C208.707 108.001 209.275 107.606 209.665 107.071C209.889 106.682 210.026 106.254 210.068 105.813Z" fill="#E6E6E6"/>
<path d="M199.391 128.541C199.572 128.047 199.311 127.48 199.256 126.934C199.229 126.229 199.426 125.532 199.821 124.935C200.214 124.371 200.511 123.752 200.703 123.101C200.784 122.804 200.769 122.492 200.661 122.203C200.538 121.942 200.241 121.822 200.071 122.029L200.435 122.252C199.943 122.169 199.437 122.192 198.956 122.32C198.681 122.42 198.435 122.581 198.24 122.79C198.045 122.999 197.906 123.249 197.834 123.52C197.774 123.942 197.675 124.358 197.54 124.764C197.323 125.188 196.902 125.329 196.637 125.702C196.457 126.032 196.365 126.399 196.372 126.771C196.378 127.143 196.482 127.507 196.674 127.831C197.006 128.361 197.535 128.756 198.156 128.937C198.601 129.088 199.188 129.096 199.391 128.541Z" fill="white"/>
<path d="M209.741 131.504C209.902 131.901 210.118 132.277 210.382 132.621C210.878 133.094 211.551 132.803 212.152 132.688C212.698 132.606 213.257 132.666 213.769 132.861C214.282 133.056 214.729 133.379 215.064 133.796C214.831 132.693 214.322 131.659 213.58 130.781C212.839 129.903 211.886 129.207 210.802 128.751C209.385 128.203 207.892 128.15 206.419 128.101L206.164 128.163C206.813 129.954 208.85 129.914 209.741 131.504Z" fill="white"/>
<path d="M165.906 135.168L165.909 135.176C165.934 135.131 165.958 135.086 165.983 135.04L165.906 135.168Z" fill="#E6E6E6"/>
<path d="M164.335 138.051C163.993 138.641 163.699 139.255 163.455 139.887C163.132 140.912 162.918 141.964 162.816 143.029C162.736 143.634 162.712 144.408 163.112 144.703C163.226 144.775 163.365 144.805 163.501 144.787C163.638 144.77 163.763 144.706 163.853 144.607C164.075 144.384 164.257 144.128 164.391 143.849C165.177 142.565 165.787 141.191 166.207 139.76C166.589 138.254 166.586 136.48 165.909 135.176C165.385 136.134 164.86 137.093 164.335 138.051Z" fill="white"/>
<path d="M149.188 61.2282C149.438 61.4595 149.753 61.6165 150.095 61.6799C150.438 61.7433 150.792 61.7103 151.115 61.585C151.783 61.3077 152.396 60.9234 152.927 60.4489C153.367 60.1402 153.74 59.7541 154.026 59.3116C154.184 59.0472 154.285 58.7558 154.323 58.4543C154.362 58.1527 154.337 57.8469 154.251 57.5544C154.003 56.8656 153.373 56.6347 152.817 56.4783C151.928 56.228 151.038 55.9777 150.148 55.7275L150.792 55.1771C150.13 54.84 149.397 55.4657 148.984 56.2404C148.718 56.7462 148.533 57.2865 148.435 57.8437C148.213 59.0596 148.43 60.5076 149.188 61.2282Z" fill="#E6E6E6"/>
<path d="M164.894 56.2255C165.145 56.4878 165.492 56.6497 165.864 56.6784C166.236 56.7072 166.605 56.6005 166.897 56.3801C167.149 56.201 167.358 55.9735 167.51 55.7127C167.663 55.4519 167.756 55.1634 167.783 54.8662C167.846 54.2023 167.5 53.4643 167.006 53.407L167.119 52.7854C166.167 52.6223 164.996 52.5896 164.486 53.6864C164.314 54.1066 164.261 54.5622 164.333 55.0078C164.404 55.4534 164.598 55.8733 164.894 56.2255Z" fill="#E6E6E6"/>
<path d="M162.796 23.169C157.216 22.5718 151.613 24.1024 147.222 27.4241C142.831 30.7459 140.01 35.5867 139.381 40.8816C138.07 51.9077 144.192 75.8513 155.355 85.763C160.61 66.7731 179.028 55.5093 181.465 45.3857C184.069 34.5681 174.417 24.4128 162.796 23.169Z" fill="#EE24FF"/>
<path d="M158.937 47.6813C162.751 47.6813 165.843 44.7477 165.843 41.1289C165.843 37.5101 162.751 34.5765 158.937 34.5765C155.123 34.5765 152.031 37.5101 152.031 41.1289C152.031 44.7477 155.123 47.6813 158.937 47.6813Z" fill="white"/>
<path d="M151.675 95.2106C154.173 95.2106 156.199 93.2891 156.199 90.9189C156.199 88.5487 154.173 86.6272 151.675 86.6272C149.177 86.6272 147.152 88.5487 147.152 90.9189C147.152 93.2891 149.177 95.2106 151.675 95.2106Z" fill="#EE24FF"/>
<path opacity="0.2" d="M164.651 36.4344C165.428 36.8776 166.106 37.4617 166.645 38.1534C167.185 38.8451 167.575 39.6309 167.795 40.4658C168.014 41.3007 168.058 42.1684 167.924 43.0194C167.79 43.8704 167.48 44.688 167.013 45.4256C166.546 46.1631 165.93 46.8061 165.201 47.3179C164.472 47.8297 163.644 48.2003 162.764 48.4084C160.987 48.8288 159.107 48.5621 157.537 47.6671C159.137 48.0049 160.813 47.7912 162.262 47.0643C163.712 46.3374 164.842 45.1446 165.45 43.6995C166.057 42.2544 166.103 40.6513 165.579 39.1771C165.054 37.703 163.994 36.454 162.588 35.6537C163.315 35.8067 164.012 36.0703 164.651 36.4344Z" fill="#231F20"/>
<path opacity="0.2" d="M181.492 45.4068C179.055 55.5305 160.637 66.7943 155.382 85.7841C154.332 84.843 153.357 83.8296 152.465 82.752C158.371 64.902 175.642 54.0558 177.996 44.2745C180.104 35.52 174.184 27.2001 165.69 23.6855C175.972 26.1379 183.878 35.4936 181.492 45.4068Z" fill="#231F20"/>
<path d="M98.0801 48.7355C93.8892 48.287 89.6821 49.4364 86.3845 51.931C83.0868 54.4255 80.9686 58.0608 80.4958 62.0371C79.5114 70.3173 84.1091 88.2981 92.4916 95.7414C96.4386 81.4807 110.269 73.022 112.099 65.4195C114.055 57.2959 106.807 49.6696 98.0801 48.7355Z" fill="#EE24FF"/>
<path d="M95.1816 67.1434C98.0458 67.1434 100.368 64.9404 100.368 62.2228C100.368 59.5052 98.0458 57.3022 95.1816 57.3022C92.3173 57.3022 89.9954 59.5052 89.9954 62.2228C89.9954 64.9404 92.3173 67.1434 95.1816 67.1434Z" fill="white"/>
<path d="M89.7286 102.836C91.6046 102.836 93.1254 101.393 93.1254 99.6134C93.1254 97.8334 91.6046 96.3905 89.7286 96.3905C87.8525 96.3905 86.3317 97.8334 86.3317 99.6134C86.3317 101.393 87.8525 102.836 89.7286 102.836Z" fill="#EE24FF"/>
<path opacity="0.2" d="M99.4726 58.6974C100.056 59.0302 100.565 59.4689 100.97 59.9883C101.376 60.5078 101.669 61.0978 101.834 61.7248C101.998 62.3518 102.031 63.0034 101.931 63.6425C101.83 64.2816 101.598 64.8956 101.247 65.4494C100.896 66.0033 100.434 66.4862 99.8862 66.8705C99.3387 67.2549 98.7168 67.5332 98.056 67.6895C97.3952 67.8458 96.7084 67.8771 96.0348 67.7815C95.3613 67.686 94.7141 67.4655 94.1304 67.1327C95.3324 67.3864 96.5904 67.226 97.6791 66.6801C98.7679 66.1341 99.6163 65.2384 100.073 64.1532C100.529 63.068 100.563 61.8641 100.17 60.7571C99.7758 59.65 98.9796 58.7121 97.9236 58.1111C98.4699 58.226 98.993 58.424 99.4726 58.6974Z" fill="#231F20"/>
<path opacity="0.2" d="M112.12 65.4354C110.29 73.0379 96.4589 81.4966 92.512 95.7573C91.7236 95.0506 90.9914 94.2895 90.3214 93.4803C94.7566 80.0756 107.727 71.9304 109.495 64.585C111.077 58.0107 106.632 51.7628 100.253 49.1234C107.975 50.965 113.912 57.9909 112.12 65.4354Z" fill="#231F20"/>
<path d="M260.448 226.988H254.754L252.045 206.149L260.449 206.149L260.448 226.988Z" fill="#A0616A"/>
<path d="M263.511 237.246H259.471L258.749 233.627L256.902 237.246H246.186C245.672 237.246 245.172 237.09 244.758 236.802C244.344 236.513 244.039 236.106 243.886 235.641C243.733 235.175 243.741 234.676 243.908 234.215C244.076 233.754 244.394 233.357 244.817 233.08L253.375 227.472V223.813L262.376 224.323L263.511 237.246Z" fill="#2F2E41"/>
<path d="M238.393 226.988H232.699L229.99 206.149L238.394 206.149L238.393 226.988Z" fill="#A0616A"/>
<path d="M241.456 237.246H237.415L236.694 233.627L234.847 237.246H224.131C223.617 237.246 223.117 237.09 222.703 236.802C222.289 236.513 221.983 236.106 221.831 235.641C221.678 235.175 221.686 234.676 221.853 234.215C222.021 233.754 222.339 233.357 222.762 233.08L231.32 227.472V223.813L240.321 224.323L241.456 237.246Z" fill="#2F2E41"/>
<path d="M216.76 171.968C217.849 173.519 229.704 216.152 229.704 216.152L240.215 217.289L238.968 206.562L237.061 187.58L234.108 174.91C234.108 174.91 244.536 152.391 245.195 150.598L245.664 149.31L248.922 177.365C249.309 178.367 249.478 179.433 249.418 180.498C249.32 182.25 251.172 208.614 251.172 208.614L252.063 218.069L261.068 219.256L264.722 202.897C267.773 197.583 266.024 178.699 264.777 176.941C263.529 175.184 264.025 162.942 264.025 162.942C265.618 162.41 275.119 131.672 270.367 131.853C270.672 130.214 270.912 128.751 270.912 128.751L262.663 122.44L242.019 117.348L236.81 114.975C236.81 114.975 227.508 131.295 227.601 132.106C227.729 133.134 227.481 134.173 226.898 135.048L217.506 164.871C217.506 164.871 215.659 170.402 216.76 171.968Z" fill="#2F2E41"/>
<path d="M268.624 65.2517L265.34 58.6358L254.162 59.0434L250.516 65.9262C250.516 65.9262 240.097 77.7344 239.759 81.5739C239.335 86.403 242.86 110.07 239.335 108.536C239.335 108.536 231.024 117.792 235.942 117.792C240.86 117.792 263.105 131.041 264.565 132.531C266.024 134.021 272.54 134.987 271.994 131.877C271.447 128.766 268.624 111.943 268.624 111.943L276.267 85.4907C278.466 79.7797 279.151 73.3736 274.179 69.5373L268.624 65.2517Z" fill="#CCCCCC"/>
<path d="M227.22 45.7794C225.725 45.2163 224.128 44.9382 222.519 44.9608C220.911 44.9834 219.323 45.3064 217.846 45.9113C216.369 46.5162 215.032 47.3912 213.912 48.4863C212.792 49.5814 211.909 50.8752 211.316 52.2937C208.82 58.2596 208.406 72.5066 213.051 79.647C219.023 69.8041 231.106 66.1696 234.086 60.8696C237.271 55.2064 233.508 48.1476 227.22 45.7794Z" fill="#EE24FF"/>
<path d="M222.192 59.0389C224.399 59.0389 226.187 57.3419 226.187 55.2486C226.187 53.1552 224.399 51.4582 222.192 51.4582C219.986 51.4582 218.197 53.1552 218.197 55.2486C218.197 57.3419 219.986 59.0389 222.192 59.0389Z" fill="white"/>
<path d="M210.172 84.4777C211.617 84.4777 212.789 83.3662 212.789 81.9951C212.789 80.624 211.617 79.5125 210.172 79.5125C208.727 79.5125 207.556 80.624 207.556 81.9951C207.556 83.3662 208.727 84.4777 210.172 84.4777Z" fill="#EE24FF"/>
<path opacity="0.2" d="M226.133 53.4512C226.865 54.1772 227.263 55.1491 227.24 56.1535C227.217 57.1578 226.775 58.1124 226.01 58.8075C225.246 59.5027 224.222 59.8814 223.163 59.8606C222.105 59.8398 221.098 59.4211 220.365 58.6965C221.204 59.1156 222.173 59.2377 223.099 59.0407C224.025 58.8438 224.846 58.3407 225.416 57.6216C225.987 56.9025 226.269 56.0142 226.212 55.1158C226.155 54.2175 225.763 53.3676 225.106 52.7183C225.488 52.9085 225.835 53.156 226.133 53.4512Z" fill="#231F20"/>
<path opacity="0.2" d="M234.098 60.8853C231.118 66.1853 219.035 69.8198 213.063 79.6628C212.627 78.9863 212.245 78.2801 211.92 77.5501C218.073 68.4371 229.449 64.8705 232.328 59.7498C234.905 55.1666 232.932 49.6699 228.753 46.4846C234.1 49.3345 237.016 55.6956 234.098 60.8853Z" fill="#231F20"/>
<path d="M208.993 81.1403C209.601 81.0213 210.23 81.0303 210.834 81.1667C211.438 81.3031 212.003 81.5635 212.49 81.9296C212.977 82.2957 213.373 82.7586 213.651 83.2856C213.928 83.8127 214.081 84.3911 214.097 84.9802L223.161 88.2809L222.39 93.9958L209.66 89.1639C208.615 89.1248 207.622 88.7234 206.868 88.0358C206.114 87.3481 205.652 86.4221 205.57 85.4331C205.488 84.444 205.791 83.4608 206.422 82.6696C207.053 81.8784 207.968 81.3342 208.993 81.1402L208.993 81.1403Z" fill="#A0616A"/>
<path d="M272.319 69.3635C271.365 68.8107 270.305 68.4422 269.201 68.2789C268.096 68.1157 266.968 68.161 265.882 68.4122C264.796 68.6634 263.773 69.1156 262.871 69.7429C261.969 70.3701 261.207 71.1601 260.628 72.0674L247.619 92.4497L218.207 85.8348L215.527 92.8147L253.193 109.743L272.269 80.9145C275.125 77.1063 276.524 71.7989 272.319 69.3635Z" fill="#CCCCCC"/>
<path d="M272.805 44.3843C272.806 46.3488 272.299 48.2834 271.327 50.0184C270.356 51.7533 268.951 53.2355 267.235 54.3349C265.519 55.4342 263.545 56.1172 261.486 56.3236C259.427 56.5301 257.346 56.2539 255.426 55.5192C253.505 54.7845 251.805 53.6138 250.472 52.1098C249.14 50.6059 248.218 48.8147 247.786 46.8934C247.354 44.9722 247.425 42.9797 247.994 41.0909C248.563 39.202 249.612 37.4745 251.049 36.0601L251.11 36.0026C251.211 35.9017 251.312 35.8009 251.418 35.7049C251.419 35.7049 251.42 35.7048 251.42 35.7045C251.421 35.7043 251.421 35.7039 251.422 35.7035C251.422 35.703 251.423 35.7025 251.423 35.7019C251.423 35.7013 251.423 35.7007 251.423 35.7001C251.555 35.5849 251.686 35.4696 251.823 35.3592C253.651 33.8388 255.902 32.8505 258.306 32.5125C260.711 32.1745 263.167 32.5011 265.381 33.4534C267.595 34.4057 269.472 35.9431 270.789 37.8818C272.106 39.8204 272.806 42.078 272.805 44.3843V44.3843Z" fill="#2F2E41"/>
<path d="M257.04 57.2247C262.898 57.2247 267.647 52.7191 267.647 47.1611C267.647 41.6031 262.898 37.0974 257.04 37.0974C251.182 37.0974 246.433 41.6031 246.433 47.1611C246.433 52.7191 251.182 57.2247 257.04 57.2247Z" fill="#9E616A"/>
<path d="M268.303 50.031L266.546 49.7365C265.564 49.5672 264.66 49.1174 263.955 48.4473C263.249 47.7773 262.777 46.9189 262.599 45.987L260.885 48.7137L260.81 48.7373C256.724 50.0244 252.473 49.6394 247.817 47.5621C246.485 46.9629 245.194 46.2873 243.949 45.539L243.857 45.4845L243.85 45.3822C243.613 42.1084 244.387 39.3734 246.031 37.6809C246.662 37.0442 247.428 36.5412 248.278 36.2049C249.128 35.8685 250.044 35.7065 250.965 35.7294C251.031 35.7131 251.091 35.6816 251.14 35.6376C251.164 35.6211 251.187 35.6048 251.211 35.5893V35.5724L251.333 35.5179C251.595 35.4012 251.861 35.2894 252.128 35.1872C254.227 34.4164 256.512 34.223 258.722 34.6293C260.931 35.0357 262.975 36.0252 264.618 37.4843C267.885 40.4437 269.384 45.4101 268.347 49.843L268.303 50.031Z" fill="#2F2E41"/>
<path d="M290.675 58.6053C287.066 56.8377 291.708 50.4223 290.775 46.6714C289.842 42.9205 283.125 41.7141 282.697 37.8816C282.269 34.0492 281.262 30.0964 278.597 27.1883C276.894 25.33 274.384 23.9582 271.8 24.1909C270.926 24.2697 270.08 24.5263 269.319 24.9433C268.559 25.3602 267.902 25.9278 267.394 26.6073C266.886 27.2867 266.538 28.0622 266.374 28.8808C266.21 29.6993 266.234 30.5418 266.444 31.3508C265.708 30.3618 263.804 30.5762 263.333 31.7012C262.914 32.7013 263.84 33.9127 264.929 34.0012C266.354 35.6713 267.986 37.4437 270.219 37.7806C270.575 37.8581 270.945 37.8579 271.301 37.78C271.656 37.7021 271.989 37.5485 272.273 37.3309C272.798 36.8523 272.839 35.8953 272.216 35.5376C275.022 36.5952 276.667 39.4739 277.083 42.3114C277.5 45.1489 276.924 48.0199 276.544 50.862C276.164 53.7041 276.001 56.6939 277.175 59.3332C278.563 62.4515 281.758 64.6864 285.245 65.4032C288.731 66.1199 292.445 65.4194 295.601 63.8412C298.757 62.2628 301.389 59.8534 303.539 57.1522C299.835 59.6473 294.711 60.582 290.675 58.6053Z" fill="#2F2E41"/>
<path d="M267.852 49.7513C267.852 49.7513 264.71 38.6236 251.241 36.0553C251.226 36.0506 251.175 36.0313 251.11 36.0026C251.069 35.9786 251.019 35.9545 250.968 35.9305C251.12 35.8489 251.266 35.777 251.418 35.7049C251.419 35.7049 251.42 35.7048 251.42 35.7045C251.421 35.7043 251.421 35.7039 251.422 35.7035C251.422 35.703 251.423 35.7025 251.423 35.7019C251.423 35.7013 251.423 35.7007 251.423 35.7001C251.555 35.5849 251.686 35.4697 251.823 35.3593L252.208 35.3737C252.208 35.3737 265.722 33.343 267.852 49.7513Z" fill="#FD6584"/>
<path opacity="0.2" d="M260.817 85.4571L253.21 93.8191L240.641 90.2975L254.344 96.2887L260.817 85.4571Z" fill="black"/>
<path d="M306.476 237.876L189.52 238C189.387 238 189.258 237.949 189.164 237.859C189.07 237.769 189.017 237.648 189.017 237.521C189.017 237.394 189.07 237.272 189.164 237.183C189.258 237.093 189.387 237.042 189.52 237.042L306.476 236.918C306.61 236.918 306.739 236.968 306.834 237.058C306.928 237.148 306.981 237.27 306.981 237.397C306.981 237.524 306.928 237.646 306.834 237.736C306.739 237.826 306.61 237.876 306.476 237.876Z" fill="#CACACA"/>
<path d="M311.61 163.412C306.134 163.412 300.131 163.216 293.603 162.823C259.835 160.789 216.097 153.715 170.443 142.906C124.79 132.098 82.6759 118.844 51.86 105.588C36.8487 99.1305 25.3275 93.0179 17.617 87.4197C9.45363 81.4933 5.88284 76.3274 7.00344 72.0662C9.18691 63.7647 28.5204 61.9485 44.3548 61.8868L44.3602 63.094C22.6154 63.1787 9.78708 66.469 8.23818 72.3586C6.26515 79.8598 22.3563 91.5705 52.3855 104.489C83.1336 117.715 125.17 130.943 170.751 141.735C216.332 152.527 259.99 159.588 293.683 161.618C326.587 163.601 346.592 160.436 348.565 152.935C350.203 146.707 339.404 137.532 318.158 127.1L318.743 126.028C334.181 133.608 352.1 144.48 349.799 153.227C348.679 157.488 342.968 160.457 332.827 162.049C327.047 162.957 319.946 163.412 311.61 163.412Z" fill="#EE24FF"/>
</g>
<defs>
<clipPath id="clip0_59_12">
<rect width="350" height="238" fill="white"/>
</clipPath>
</defs>
</svg>
